<svg width="64" height="75" viewBox="0 0 64 75" fill="none" xmlns="http://www.w3.org/2000/svg">
    <g clip-path="url(#clip0_402_471)">
        <path d="M59.7063 0V50.7386H58.2652L7.51108 0H0V55.0231H4.28784V4.28454H5.71124L56.4889 55.0231H64V0H59.7063Z" fill="#FFD040"/>
        <path d="M17.0566 55.0231H21.3504V43.8328L33.1493 55.0231H39.3781L17.0566 33.8531V55.0231Z" fill="#FFD040"/>
        <path d="M8.5293 55.0231H12.823V23.4445L44.426 55.0231H50.496L8.5293 13.0946V55.0231Z" fill="#FFD040"/>
        <path d="M46.925 0H42.6371V11.1903L30.8382 0H24.6094L46.925 21.17V0Z" fill="#FFD040"/>
        <path d="M55.453 0H51.1652V31.5845L19.5622 0H13.4922L55.453 41.9285V0Z" fill="#FFD040"/>
        <path d="M8.53516 63.5628H11.4937L16.205 69.6047V63.5628H19.3459V75H16.5638L11.676 68.7231V75H8.53516V63.5628Z" fill="#FFD040"/>
        <path d="M21.5332 63.5628H30.7382V66.2546H24.6741V67.9884H30.1677V70.4862H24.6741V72.3023H30.8206V75H21.5332V63.5628Z" fill="#FFD040"/>
        <path d="M33.0078 63.5628H36.1781V68.2L40.1189 63.5628H43.8833L39.5484 68.4821L44.0303 75H40.2189L37.3427 70.7507L36.1781 72.0437V75H33.0078V63.5628Z" fill="#FFD040"/>
        <path d="M49.5008 63.5628H52.6299L57.4648 75H54.0945L53.2593 72.9547H48.8009L47.9833 75H44.6836L49.5008 63.5628ZM52.33 70.4921L51.0536 67.2361L49.7596 70.4921H52.33Z" fill="#FFD040"/>
    </g>
    <defs>
        <clipPath id="clip0_402_471">
            <rect width="64" height="75" fill="white"/>
        </clipPath>
    </defs>
</svg>
